<svg width="24" height="24" viewBox="0 0 24 24" version="1.1" xmlns="http://www.w3.org/2000/svg">
  <path d="M 24 11.997 C 24 5.371 18.629 0 12.003 0 L 11.997 0 C 5.372 0 0 5.371 0 11.997 L 0 12.003 C 0 18.629 5.372 24 11.997 24 L 12.003 24 C 18.629 24 24 18.629 24 12.003 L 24 11.997 Z" fill="currentColor"/>
  <path d="M 13.718 18.423 C 13.748 18.485 13.743 18.557 13.705 18.615 C 13.668 18.672 13.603 18.707 13.534 18.707 C 12.864 18.707 11.335 18.707 10.878 18.707 C 10.798 18.707 10.725 18.662 10.691 18.59 C 10.158 17.464 5.926 8.529 5.109 6.804 C 5.079 6.741 5.084 6.668 5.122 6.61 C 5.16 6.552 5.226 6.516 5.296 6.516 C 5.968 6.516 7.49 6.516 7.947 6.516 C 8.027 6.516 8.1 6.562 8.134 6.633 C 8.669 7.762 12.906 16.708 13.718 18.423 Z M 15.251 18.707 C 15.171 18.707 15.098 18.662 15.065 18.591 C 14.531 17.465 10.303 8.538 9.483 6.807 C 9.453 6.743 9.458 6.67 9.496 6.611 C 9.535 6.552 9.601 6.516 9.672 6.516 C 10.346 6.516 11.864 6.516 12.32 6.516 C 12.4 6.516 12.473 6.562 12.507 6.634 C 13.022 7.721 16.953 16.019 17.261 16.671 C 17.274 16.698 17.28 16.727 17.28 16.756 C 17.28 16.988 17.28 18.058 17.28 18.507 C 17.28 18.56 17.259 18.611 17.221 18.649 C 17.182 18.686 17.13 18.707 17.076 18.707 C 16.637 18.707 15.615 18.707 15.251 18.707 Z M 14.012 6.516 C 13.941 6.516 13.875 6.552 13.837 6.611 C 13.798 6.669 13.793 6.743 13.823 6.807 C 14.328 7.873 16.094 11.6 16.889 13.277 C 16.929 13.363 17.025 13.409 17.119 13.389 C 17.214 13.369 17.28 13.287 17.28 13.192 C 17.28 13.123 17.278 9.668 17.276 7.758 C 17.276 7.074 16.71 6.52 16.012 6.519 C 15.249 6.518 14.36 6.516 14.012 6.516 Z M 15.992 7.163 C 16.348 7.163 16.636 7.446 16.636 7.794 C 16.636 8.142 16.348 8.425 15.992 8.425 C 15.637 8.425 15.349 8.142 15.349 7.794 C 15.349 7.446 15.637 7.163 15.992 7.163 Z" fill="#fff"/>
</svg>
